<svg width="337" height="337" viewBox="0 0 337 337" fill="none" xmlns="http://www.w3.org/2000/svg">
<path d="M168.367 334.638C260.159 334.638 334.571 260.167 334.571 168.303C334.571 76.4391 260.159 1.96851 168.367 1.96851C76.5757 1.96851 2.16382 76.4391 2.16382 168.303C2.16382 260.167 76.5757 334.638 168.367 334.638Z" fill="white"/>
<path d="M23.9961 168.303C23.9961 225.585 57.2368 274.993 105.426 298.418L36.5843 109.446C28.52 127.556 23.9961 147.437 23.9961 168.303Z" fill="#0E1344"/>
<path d="M265.926 161.02C265.926 143.107 259.435 130.706 253.928 121.257C246.65 109.446 239.766 99.2105 239.766 87.3997C239.766 74.2111 249.798 61.8098 263.959 61.8098C264.549 61.8098 265.139 61.8098 265.926 62.0066C240.16 38.3852 205.935 24.0154 168.368 24.0154C118.015 24.0154 73.5626 49.999 47.7961 89.1713C51.1399 89.3682 54.2869 89.3682 57.0406 89.3682C72.1858 89.3682 95.592 87.5966 95.592 87.5966C103.46 87.2029 104.246 98.62 96.5754 99.4073C96.5754 99.4073 88.7078 100.392 80.0534 100.785L132.57 257.278L164.237 162.398L141.814 100.785C133.947 100.392 126.669 99.4073 126.669 99.4073C118.802 99.0136 119.785 87.0061 127.653 87.5966C127.653 87.5966 151.452 89.3682 165.614 89.3682C180.759 89.3682 204.165 87.5966 204.165 87.5966C212.033 87.2029 212.82 98.62 205.149 99.4073C205.149 99.4073 197.281 100.392 188.627 100.785L240.553 255.9L254.911 207.673C261.206 187.791 265.926 173.421 265.926 161.02Z" fill="#0E1344"/>
<path d="M170.924 181.098L127.652 307.079C140.634 310.82 154.206 312.985 168.367 312.985C185.086 312.985 201.215 310.032 216.36 304.717C215.966 304.127 215.573 303.536 215.376 302.749L170.924 181.098Z" fill="#0E1344"/>
<path d="M295.233 99.0137C295.823 103.541 296.217 108.462 296.217 113.777C296.217 128.344 293.463 144.879 285.202 165.548L240.947 293.301C283.825 268.301 312.739 221.649 312.739 168.303C312.935 143.304 306.444 119.683 295.233 99.0137Z" fill="#0E1344"/>
<path d="M168.367 0C75.5292 0 0 75.5888 0 168.5C0 261.411 75.5292 337 168.367 337C261.205 337 336.734 261.411 336.734 168.5C336.734 75.3919 261.205 0 168.367 0ZM168.367 329.126C79.8564 329.126 7.67095 257.081 7.67095 168.303C7.67095 79.7225 79.6597 7.48012 168.367 7.48012C256.878 7.48012 329.064 79.5257 329.064 168.303C329.064 257.081 257.075 329.126 168.367 329.126Z" fill="#0E1344"/>
</svg>
