<svg width="792" height="798" viewBox="0 0 792 798" fill="none" xmlns="http://www.w3.org/2000/svg">
<path d="M673.941 507.352V504.588C673.941 504.061 673.547 503.667 673.02 503.667H666.839C666.313 503.667 665.918 504.061 665.918 504.588V507.352C650.266 509.327 638.166 522.753 638.166 538.943V596.992H640.007V538.943C640.007 523.806 651.319 511.301 665.918 509.327V512.222C652.765 514.197 642.506 525.517 642.506 539.338V541.576V597.124H644.348V542.497H650.003V597.124H651.845V542.497H652.765C653.028 542.497 653.423 542.366 653.555 542.102C654.738 540.391 656.711 538.812 659.21 537.627V597.124H661.052V536.969C663.419 536.179 666.181 535.652 668.943 535.521V597.124H670.784V535.521C673.547 535.652 676.309 536.179 678.676 536.969V597.124H680.517V537.759C680.649 537.759 680.649 537.759 680.649 537.89C681.175 538.153 681.701 538.417 682.227 538.68L682.359 538.812C682.885 539.075 683.279 539.47 683.806 539.733C683.937 539.865 683.937 539.865 684.069 539.996C684.463 540.26 684.858 540.654 685.121 540.918C685.515 541.313 685.91 541.707 686.173 542.234C686.305 542.497 686.699 542.629 686.962 542.629H687.883V597.255H689.724V542.629H695.38V597.255H697.221V541.707V539.47C697.221 525.78 687.094 514.328 673.81 512.354V509.458C688.409 511.433 699.72 523.937 699.72 539.075V597.124H701.562V539.075C701.825 522.753 689.593 509.327 673.941 507.352ZM667.891 509.063V507.22V505.641H672.1V507.22V509.063V511.828C671.442 511.828 670.653 511.696 669.995 511.696C669.338 511.696 668.549 511.696 667.891 511.828V509.063V509.063ZM695.511 539.206V540.391H687.62C687.357 539.996 686.962 539.601 686.568 539.206C686.436 539.075 686.436 538.943 686.305 538.812C686.042 538.548 685.647 538.285 685.384 538.022C685.121 537.759 684.858 537.627 684.595 537.364C684.332 537.232 684.069 536.969 683.674 536.837C683.279 536.574 682.885 536.311 682.49 536.179C682.227 536.047 681.964 535.916 681.701 535.784C681.175 535.521 680.78 535.389 680.254 535.126H680.123C677.098 533.941 673.678 533.283 670.127 533.283C666.576 533.283 663.024 533.941 659.999 535.126C656.711 536.442 654.212 538.153 652.502 540.391H644.611V539.206C644.611 526.438 653.949 515.908 666.05 514.065C667.365 513.802 668.68 513.67 670.127 513.67C671.442 513.67 672.889 513.802 674.204 514.065C686.173 515.908 695.511 526.438 695.511 539.206Z" fill="#EF233C" stroke="#EF233C"/>
<path d="M564.907 507.352V504.588C564.907 504.061 564.512 503.667 563.986 503.667H557.804C557.278 503.667 556.884 504.061 556.884 504.588V507.352C541.232 509.327 529.132 522.753 529.132 538.943V596.992H530.973V538.943C530.973 523.806 542.284 511.301 556.884 509.327V512.222C543.731 514.197 533.472 525.517 533.472 539.338V541.576V597.124H535.314V542.497H540.969V597.124H542.811V542.497H543.731C543.994 542.497 544.389 542.366 544.52 542.102C545.704 540.391 547.677 538.812 550.176 537.627V597.124H552.017V536.969C554.385 536.179 557.147 535.652 559.909 535.521V597.124H561.75V535.521C564.512 535.652 567.274 536.179 569.642 536.969V597.124H571.483V537.759C571.615 537.759 571.615 537.759 571.615 537.89C572.141 538.153 572.667 538.417 573.193 538.68L573.325 538.812C573.851 539.075 574.245 539.47 574.771 539.733C574.903 539.865 574.903 539.865 575.034 539.996C575.429 540.26 575.824 540.654 576.087 540.918C576.481 541.313 576.876 541.707 577.139 542.234C577.27 542.497 577.665 542.629 577.928 542.629H578.849V597.255H580.69V542.629H586.346V597.255H588.187V541.707V539.47C588.187 525.78 578.059 514.328 564.775 512.354V509.458C579.375 511.433 590.686 523.937 590.686 539.075V597.124H592.527V539.075C592.659 522.753 580.558 509.327 564.907 507.352ZM558.725 509.063V507.22V505.641H562.934V507.22V509.063V511.828C562.276 511.828 561.487 511.696 560.83 511.696C560.172 511.696 559.383 511.696 558.725 511.828V509.063V509.063ZM586.346 539.206V540.391H578.454C578.191 539.996 577.796 539.601 577.402 539.206C577.27 539.075 577.27 538.943 577.139 538.812C576.876 538.548 576.481 538.285 576.218 538.022C575.955 537.759 575.692 537.627 575.429 537.364C575.166 537.232 574.903 536.969 574.508 536.837C574.114 536.574 573.719 536.311 573.325 536.179C573.061 536.047 572.798 535.916 572.535 535.784C572.009 535.521 571.615 535.389 571.089 535.126H570.957C567.932 533.941 564.512 533.283 560.961 533.283C557.41 533.283 553.859 533.941 550.834 535.126C547.545 536.442 545.046 538.153 543.337 540.391H535.445V539.206C535.445 526.438 544.783 515.908 556.884 514.065C558.199 513.802 559.514 513.67 560.961 513.67C562.276 513.67 563.723 513.802 565.038 514.065C577.007 515.908 586.346 526.438 586.346 539.206Z" fill="#EF233C" stroke="#EF233C"/>
<path d="M750.885 538.943V564.611C751.542 563.294 752.2 561.847 752.726 560.53V538.811C752.726 526.175 760.486 515.513 771.534 511.037C771.797 510.248 771.929 509.458 772.192 508.8C759.829 513.275 750.885 524.99 750.885 538.943Z" fill="#EF233C" stroke="#EF233C"/>
<path d="M50.1148 450.62V463.782H8.81571C8.94723 464.441 9.07876 465.099 9.21029 465.625H50.2464V583.039C50.904 584.224 51.4301 585.408 52.0877 586.593V465.625V463.782V455.358H74.9733V463.782V465.625V596.86H76.8146V465.625H159.544V596.86H161.386V465.625V463.782V455.358H184.271V463.782V465.625V596.86H186.113V465.625H272.788V596.86H274.761V465.625H305.933V596.86H307.774V465.625H321.979V596.86H323.82V465.625V463.782V458.781C323.82 422.319 351.178 392.176 386.427 387.701V396.915C355.781 401.258 332.238 427.584 332.238 459.439V463.782V464.572V465.625V596.86H334.079V465.625H349.862V596.86H351.704V465.625V465.494H355.123C355.387 465.494 355.781 465.362 355.913 465.099C356.176 464.704 356.57 464.177 356.965 463.782C360.253 459.57 365.251 456.016 371.433 453.515V463.782V465.625V596.86H373.274V465.625V463.782V452.726C379.587 450.356 386.821 449.04 394.318 448.908V463.782V465.625V596.86H396.16V465.625V463.782V448.908C412.074 449.172 426.542 454.832 433.513 463.782C433.908 464.177 434.171 464.704 434.565 465.099C434.697 465.362 435.091 465.494 435.354 465.494H456.398V465.625V596.86H458.24V465.625V464.572V463.782V459.439C458.24 427.584 434.697 401.258 404.051 396.915V387.701C439.3 392.044 466.657 422.319 466.657 458.781V463.782V465.625V596.86H468.499V465.625H481.125V596.86H482.967V465.625H514.138V596.86H515.98V465.625H601.472V596.86H603.313V465.625V463.782V455.358H626.198V463.782V465.625V596.86H628.04V465.625H711.69V596.86H713.532V465.625V463.782V455.358H737.338V463.782V465.625V590.542C737.995 589.489 738.653 588.304 739.179 587.251V465.625H782.451C782.583 464.967 782.714 464.309 782.846 463.782H739.311V450.62H784.95C785.082 449.961 785.082 449.303 785.213 448.777H739.311V442.853C739.311 442.327 738.916 441.932 738.39 441.932H713.532C713.006 441.932 712.611 442.327 712.611 442.853V448.777H628.96V442.853C628.96 442.327 628.566 441.932 628.04 441.932H603.181C602.655 441.932 602.261 442.327 602.261 442.853V448.777H590.555C549.913 448.777 516.9 415.738 516.9 375.064C516.9 374.932 516.9 374.801 516.769 374.669V354.53V349.001V312.935C516.769 312.408 516.374 312.014 515.848 312.014H482.704H468.236C447.849 312.014 431.409 295.428 431.409 275.157V270.287H437.459H445.087C445.613 270.287 446.008 269.892 446.008 269.366C446.008 241.065 422.991 218.162 394.844 218.162C366.566 218.162 343.681 241.197 343.681 269.366C343.681 269.892 344.075 270.287 344.601 270.287H352.23H358.28V275.157C358.28 295.56 341.708 312.014 321.453 312.014H307.116H273.972H273.84C273.314 312.014 272.92 312.408 272.92 312.935V375.196C272.92 415.869 239.907 448.908 199.265 448.908H186.244V442.985C186.244 442.459 185.85 442.064 185.323 442.064H160.465C159.939 442.064 159.544 442.459 159.544 442.985V448.908H76.8146V442.985C76.8146 442.459 76.42 442.064 75.8939 442.064H51.0355C50.5094 442.064 50.1148 442.459 50.1148 442.985V448.908H6.44824C6.57977 449.567 6.57977 450.225 6.71129 450.751H50.1148V450.62ZM714.452 450.62V448.777V443.775H737.338V448.777V450.62V453.384H714.452V450.62ZM628.96 450.62H712.611V463.782H628.96V450.62ZM604.102 450.62V448.777V443.775H626.988V448.777V450.62V453.384H604.102V450.62ZM516.769 450.093C516.9 449.961 516.9 449.83 516.9 449.698V391.913C524.529 425.478 554.648 450.751 590.555 450.751H602.261V463.914H516.769V450.093ZM483.624 313.593H514.796V347.817H483.624V313.593ZM483.624 349.791H514.796V353.477H483.624V349.791ZM483.624 355.32H514.796V463.782H483.624V355.32ZM456.925 459.439V463.651H436.407C429.173 453.515 413.258 447.066 395.765 447.066C387.61 447.066 379.587 448.513 372.485 451.278C364.856 454.305 358.806 458.517 355.123 463.782H334.605V459.57C334.605 428.769 357.359 403.233 386.953 399.021C387.61 398.889 388.268 398.889 388.794 398.757C391.03 398.494 393.398 398.363 395.765 398.363C398.132 398.363 400.5 398.494 402.736 398.757C403.393 398.889 404.051 398.889 404.577 399.021C434.171 403.101 456.925 428.637 456.925 459.439ZM388.663 396.651V387.437V385.594V380.856H402.604V385.594V387.437V396.651C400.368 396.388 398.001 396.257 395.633 396.257C393.266 396.257 391.03 396.388 388.663 396.651ZM351.309 268.049H345.522C346.048 241.328 367.881 219.61 394.844 219.61C421.676 219.61 443.64 241.197 444.167 268.049H438.379C437.853 244.488 418.519 225.401 394.844 225.401C371.17 225.533 351.835 244.488 351.309 268.049ZM353.151 268.049C353.677 245.541 372.09 227.376 394.713 227.376C417.335 227.376 435.88 245.541 436.275 268.049H416.415C416.809 266.47 416.941 264.89 416.941 263.311C416.941 251.201 407.076 241.197 394.844 241.197C382.744 241.197 372.748 251.069 372.748 263.311C372.748 264.89 372.879 266.47 373.274 268.049H353.151ZM414.968 263.311C414.968 274.499 405.892 283.45 394.844 283.45C383.665 283.45 374.721 274.367 374.721 263.311C374.721 252.122 383.796 243.171 394.844 243.171C405.892 243.171 414.968 252.254 414.968 263.311ZM360.121 274.762V270.024H373.8C376.694 278.843 384.98 285.293 394.844 285.293C404.577 285.293 412.995 278.843 415.888 270.024H429.567V274.762C429.567 292.006 440.878 306.617 456.398 311.619H333.553C348.942 306.617 360.121 292.006 360.121 274.762ZM308.037 313.593H481.783V347.817H308.037V313.593ZM308.037 349.791H481.783V353.477H308.037V349.791ZM308.037 355.32H481.783V463.782H469.156V458.781C469.156 421.266 440.878 390.202 404.577 385.858V379.934C404.577 379.408 404.183 379.013 403.657 379.013H387.742C387.216 379.013 386.821 379.408 386.821 379.934V385.858C350.52 390.202 322.242 421.266 322.242 458.781V463.782H308.037V355.32V355.32ZM274.893 313.593H306.064V347.817H274.893V313.593ZM274.893 349.791H306.064V353.477H274.893V349.791ZM274.893 355.32H306.064V463.782H274.893V355.32ZM186.244 450.62H199.134C235.04 450.62 265.16 425.478 272.788 391.781V449.567V463.651H186.244V450.62ZM161.386 450.62V448.777V443.775H184.271V448.777V450.62V453.384H161.386V450.62ZM76.8146 450.62H159.544V463.782H76.8146V450.62ZM51.9562 450.62V448.777V443.775H74.8417V448.777V450.62V453.384H51.9562V450.62Z" fill="#EF233C" stroke="#EF233C"/>
<path d="M755.225 539.206V541.444V555.002C755.882 553.554 756.54 552.238 757.066 550.79V542.365H760.486C760.749 541.707 761.012 541.049 761.275 540.523H757.066V539.338C757.066 529.992 762.064 521.963 769.561 517.488C769.824 516.566 770.087 515.776 770.482 514.855C761.538 519.33 755.225 528.544 755.225 539.206Z" fill="#EF233C" stroke="#EF233C"/>
<path d="M36.3042 539.206C36.3042 528.544 30.1225 519.33 21.1787 514.855C21.4418 515.776 21.8363 516.566 22.0994 517.488C29.4648 521.963 34.4628 529.992 34.4628 539.206V540.391H30.3855C30.6486 541.049 30.9116 541.707 31.1747 542.234H34.4628V550.395C35.1205 551.843 35.7781 553.291 36.3042 554.739V541.312V539.206Z" fill="#EF233C" stroke="#EF233C"/>
<path d="M19.4697 508.932C19.7328 509.721 19.8643 510.511 20.1274 511.169C31.044 515.645 38.804 526.307 38.804 538.812V560.267C39.4617 561.584 39.9878 563.031 40.6454 564.348V538.812C40.6454 525.122 31.8332 513.275 19.4697 508.932Z" fill="#EF233C" stroke="#EF233C"/>
<path d="M234.645 507.352V504.588C234.645 504.061 234.251 503.667 233.724 503.667H227.543C227.017 503.667 226.622 504.061 226.622 504.588V507.352C210.97 509.327 198.87 522.753 198.87 538.943V596.992H200.711V538.943C200.711 523.806 212.023 511.301 226.622 509.327V512.222C213.469 514.197 203.21 525.517 203.21 539.338V541.576V597.124H205.052V542.497H210.707V597.124H212.549V542.497H213.469C213.733 542.497 214.127 542.366 214.259 542.102C215.442 540.391 217.415 538.812 219.914 537.627V597.124H221.756V536.969C224.123 536.179 226.885 535.652 229.647 535.521V597.124H231.489V535.521C234.251 535.652 237.013 536.179 239.38 536.969V597.124H241.221V537.759C241.353 537.759 241.353 537.759 241.353 537.89C241.879 538.153 242.405 538.417 242.931 538.68L243.063 538.812C243.589 539.075 243.983 539.47 244.51 539.733C244.641 539.865 244.641 539.865 244.773 539.996C245.167 540.26 245.562 540.654 245.825 540.918C246.219 541.313 246.614 541.707 246.877 542.234C247.009 542.497 247.403 542.629 247.666 542.629H248.587V597.255H250.428V542.629H256.084V597.255H257.925V541.707V539.47C257.925 525.78 247.798 514.328 234.514 512.354V509.458C249.113 511.433 260.424 523.937 260.424 539.075V597.124H262.266V539.075C262.529 522.753 250.297 509.327 234.645 507.352ZM228.595 509.063V507.22V505.641H232.804V507.22V509.063V511.828C232.146 511.828 231.357 511.696 230.699 511.696C230.042 511.696 229.253 511.696 228.595 511.828V509.063ZM256.215 539.206V540.391H248.324C248.061 539.996 247.666 539.601 247.272 539.206C247.14 539.075 247.14 538.943 247.009 538.812C246.746 538.548 246.351 538.285 246.088 538.022C245.825 537.759 245.562 537.627 245.299 537.364C245.036 537.232 244.773 536.969 244.378 536.837C243.983 536.574 243.589 536.311 243.194 536.179C242.931 536.047 242.668 535.916 242.405 535.784C241.879 535.521 241.484 535.389 240.958 535.126H240.827C237.802 533.941 234.382 533.283 230.831 533.283C227.28 533.283 223.728 533.941 220.703 535.126C217.415 536.442 214.916 538.153 213.206 540.391H205.315V539.206C205.315 526.438 214.653 515.908 226.754 514.065C228.069 513.802 229.384 513.67 230.831 513.67C232.146 513.67 233.593 513.802 234.908 514.065C246.877 515.908 256.215 526.438 256.215 539.206Z" fill="#EF233C" stroke="#EF233C"/>
<path d="M122.059 507.352V504.588C122.059 504.061 121.665 503.667 121.139 503.667H114.957C114.431 503.667 114.036 504.061 114.036 504.588V507.352C98.3846 509.327 86.2842 522.753 86.2842 538.943V596.992H88.1255V538.943C88.1255 523.806 99.4368 511.301 114.036 509.327V512.222C100.884 514.197 90.6245 525.517 90.6245 539.338V541.576V597.124H92.4659V542.497H98.1215V597.124H99.9629V542.497H100.884C101.147 542.497 101.541 542.366 101.673 542.102C102.856 540.391 104.829 538.812 107.328 537.627V597.124H109.17V536.969C111.537 536.179 114.299 535.652 117.061 535.521V597.124H118.903V535.521C121.665 535.652 124.427 536.179 126.794 536.969V597.124H128.636V537.759C128.767 537.759 128.767 537.759 128.767 537.89C129.293 538.153 129.819 538.417 130.345 538.68C130.345 538.68 130.477 538.68 130.477 538.812C131.003 539.075 131.398 539.47 131.924 539.733C132.055 539.865 132.055 539.865 132.187 539.996C132.581 540.26 132.976 540.654 133.239 540.918C133.634 541.313 134.028 541.707 134.291 542.234C134.423 542.497 134.817 542.629 135.08 542.629H136.001V597.255H137.842V542.629H143.498V597.255H145.339V541.707V539.47C145.339 525.78 135.212 514.328 121.928 512.354V509.458C136.527 511.433 147.838 523.937 147.838 539.075V597.124H149.68V539.075C149.811 522.753 137.579 509.327 122.059 507.352ZM115.878 509.063V507.22V505.641H120.086V507.22V509.063V511.828C119.429 511.828 118.64 511.696 117.982 511.696C117.324 511.696 116.535 511.696 115.878 511.828V509.063V509.063ZM143.498 539.206V540.391H135.606C135.343 539.996 134.949 539.601 134.554 539.206C134.423 539.075 134.423 538.943 134.291 538.812C134.028 538.548 133.634 538.285 133.37 538.022C133.107 537.759 132.844 537.627 132.581 537.364C132.318 537.232 132.055 536.969 131.661 536.837C131.266 536.574 130.871 536.311 130.477 536.179C130.214 536.047 129.951 535.916 129.688 535.784C129.162 535.521 128.767 535.389 128.241 535.126H128.109C125.084 533.941 121.665 533.283 118.113 533.283C114.562 533.283 111.011 533.941 107.986 535.126C104.698 536.442 102.199 538.153 100.489 540.391H92.5974V539.206C92.5974 526.438 101.936 515.908 114.036 514.065C115.351 513.802 116.667 513.67 118.113 513.67C119.56 513.67 120.876 513.802 122.191 514.065C134.16 515.908 143.498 526.438 143.498 539.206Z" fill="#EF233C" stroke="#EF233C"/>
<path d="M394.845 260.152C395.371 260.152 395.765 259.757 395.765 259.23V246.857C395.765 246.33 395.371 245.936 394.845 245.936C394.318 245.936 393.924 246.33 393.924 246.857V259.23C393.924 259.625 394.318 260.152 394.845 260.152Z" fill="#EF233C" stroke="#EF233C"/>
<path d="M406.944 261.994H398.658C398.132 261.994 397.737 262.389 397.737 262.916C397.737 263.442 398.132 263.837 398.658 263.837H406.944C407.47 263.837 407.865 263.442 407.865 262.916C407.865 262.389 407.47 261.994 406.944 261.994Z" fill="#EF233C" stroke="#EF233C"/>
<path d="M394.845 261.994C394.318 261.994 393.924 262.389 393.924 262.916C393.924 263.442 394.318 263.837 394.845 263.837C395.371 263.837 395.765 263.442 395.765 262.916C395.765 262.389 395.371 261.994 394.845 261.994Z" fill="#EF233C" stroke="#EF233C"/>
<path d="M708.402 638.324H702.483H89.3093H83.3906L87.0733 642.931C96.8063 655.041 107.197 666.492 117.982 677.154H121.27C109.696 665.966 98.7792 653.988 88.7832 641.483L87.994 640.561H703.535L702.746 641.483C692.619 653.988 681.702 665.966 670.259 677.154H673.547C684.464 666.361 694.723 655.041 704.456 642.931L708.402 638.324Z" fill="#EF233C" stroke="#EF233C"/>
<path d="M395.764 3.47403C612.782 3.47403 788.632 179.463 788.632 396.52C788.632 469.706 768.64 538.154 733.786 596.86H57.8743C23.1514 538.285 3.02793 469.706 3.02793 396.52C3.02793 179.463 178.878 3.47403 395.764 3.47403ZM395.764 1.23633C177.957 1.23633 0.791992 178.541 0.791992 396.52C0.791992 467.468 19.8633 537.1 56.0329 598.045L56.6905 599.098H58.0058H733.786H735.101L735.759 598.045C771.797 537.232 791 467.468 791 396.52C790.868 178.541 613.571 1.23633 395.764 1.23633Z" fill="#EF233C" stroke="#EF233C"/>
<path d="M382.743 330.179C383.27 329.389 383.533 328.468 383.533 327.678C383.533 326.756 383.138 326.361 382.217 326.361C380.507 326.361 379.192 327.546 379.192 328.994C379.192 329.126 379.061 329.389 378.929 329.389C378.666 329.389 378.666 329.257 378.666 328.994C378.666 327.151 380.376 325.835 382.48 325.835C384.848 325.835 386.689 327.151 386.689 329.257C386.689 330.442 386.295 331.363 385.637 332.416L382.217 337.945H386.821C386.952 337.945 387.084 337.945 387.084 338.208C387.084 338.34 386.952 338.471 386.821 338.471H378.14C378.008 338.471 377.877 338.34 377.877 338.208C377.877 338.077 377.877 338.077 378.008 337.813L382.743 330.179Z" fill="#EF233C"/>
<path d="M398.264 332.285C398.264 336.102 396.159 338.735 393.792 338.735C391.161 338.735 388.399 336.497 388.399 332.285C388.399 328.073 391.161 325.835 393.792 325.835C396.159 325.967 398.264 328.468 398.264 332.285ZM397.606 332.285C397.606 328.862 395.896 326.361 393.923 326.361C393.134 326.361 392.345 327.283 392.345 332.285C392.345 337.287 393.134 338.208 393.923 338.208C395.896 338.208 397.606 335.839 397.606 332.285Z" fill="#EF233C"/>
<path d="M404.576 326.098C404.708 325.967 404.971 325.835 405.234 325.835C405.497 325.835 405.628 325.967 405.628 326.23V337.945H407.338C407.47 337.945 407.601 338.076 407.601 338.208C407.601 338.34 407.47 338.471 407.338 338.471H400.104C399.973 338.471 399.841 338.34 399.841 338.208C399.841 338.076 399.973 337.945 400.104 337.945H401.814V328.468C401.157 328.862 400.499 329.126 400.104 329.389C399.973 329.389 399.841 329.389 399.71 329.389C399.578 329.257 399.71 329.126 399.841 328.994C401.157 328.336 403.261 327.151 404.576 326.098Z" fill="#EF233C"/>
<path d="M414.573 333.47C414.047 334.128 413.126 334.654 412.074 334.654C410.232 334.654 408.522 333.206 408.522 330.837C408.522 327.941 410.758 325.967 413.652 325.967C416.283 325.967 418.65 327.678 418.65 331.364C418.65 336.102 414.441 338.735 410.627 338.735C410.495 338.735 410.364 338.735 410.364 338.472C410.364 338.34 410.495 338.208 410.627 338.208C413.126 338.077 414.31 336.629 414.573 333.47ZM414.704 330.311C414.704 327.283 414.31 326.362 413.126 326.362C411.021 326.362 409.18 328.204 409.18 330.837C409.18 332.943 410.495 334.128 412.074 334.128C414.31 334.128 414.704 332.417 414.704 330.311Z" fill="#EF233C"/>
<path d="M395.763 669.915C457.144 669.915 506.903 620.117 506.903 558.688C506.903 497.259 457.144 447.461 395.763 447.461C334.383 447.461 284.624 497.259 284.624 558.688C284.624 620.117 334.383 669.915 395.763 669.915Z" fill="white"/>
<path d="M299.224 558.688C299.224 596.992 321.452 630.031 353.675 645.695L307.641 519.331C302.249 531.44 299.224 544.735 299.224 558.688Z" fill="#0E1344"/>
<path d="M461.001 553.818C461.001 541.839 456.661 533.547 452.978 527.229C448.111 519.331 443.508 512.486 443.508 504.588C443.508 495.769 450.216 487.476 459.686 487.476C460.08 487.476 460.475 487.476 461.001 487.608C443.771 471.813 420.886 462.204 395.764 462.204C362.093 462.204 332.369 479.579 315.139 505.773C317.375 505.905 319.479 505.905 321.32 505.905C331.448 505.905 347.099 504.72 347.099 504.72C352.361 504.457 352.887 512.091 347.757 512.618C347.757 512.618 342.496 513.276 336.709 513.539L371.826 618.185L393.002 554.739L378.008 513.539C372.747 513.276 367.881 512.618 367.881 512.618C362.62 512.354 363.277 504.325 368.538 504.72C368.538 504.72 384.453 505.905 393.923 505.905C404.05 505.905 419.702 504.72 419.702 504.72C424.963 504.457 425.489 512.091 420.359 512.618C420.359 512.618 415.098 513.276 409.311 513.539L444.034 617.263L453.635 585.014C457.844 571.719 461.001 562.11 461.001 553.818Z" fill="#0E1344"/>
<path d="M397.474 567.244L368.538 651.487C377.219 653.988 386.294 655.436 395.764 655.436C406.944 655.436 417.729 653.461 427.856 649.907C427.593 649.512 427.33 649.117 427.199 648.591L397.474 567.244Z" fill="#0E1344"/>
<path d="M480.598 512.354C480.993 515.382 481.256 518.673 481.256 522.227C481.256 531.967 479.414 543.024 473.89 556.845L444.297 642.273C472.97 625.556 492.304 594.36 492.304 558.688C492.435 541.971 488.095 526.176 480.598 512.354Z" fill="#0E1344"/>
<path d="M395.764 446.145C333.684 446.145 283.178 496.69 283.178 558.82C283.178 620.949 333.684 671.495 395.764 671.495C457.844 671.495 508.35 620.949 508.35 558.82C508.35 496.559 457.844 446.145 395.764 446.145ZM395.764 666.229C336.577 666.229 288.307 618.053 288.307 558.688C288.307 499.455 336.446 451.146 395.764 451.146C454.951 451.146 503.221 499.323 503.221 558.688C503.221 618.053 455.082 666.229 395.764 666.229Z" fill="#0E1344"/>
<path d="M80.8912 293.059C79.7075 292.006 79.3129 290.559 79.7075 289.111C80.1021 287.663 80.7597 287.136 82.7326 286.873L129.161 282.924L94.4384 256.598L91.5448 265.022C91.1502 265.944 90.4926 266.602 89.5719 266.207C88.6512 265.944 88.3882 265.022 88.7828 263.969L95.3591 245.146C95.7536 244.225 96.5428 243.567 97.332 243.962C98.2526 244.357 98.5157 245.146 98.1211 246.199L95.7536 253.044L151.784 295.692C153.099 296.613 153.625 298.193 153.231 299.378C152.836 300.694 151.521 301.484 149.679 301.615L101.672 306.617L136.79 338.603C138.105 339.92 138.5 341.368 138.105 342.552C137.71 343.737 136.527 344.527 134.685 344.527L63.1352 345.975L60.7677 352.819C60.3732 353.872 59.7155 354.399 58.7948 354.004C57.8742 353.741 57.6111 352.819 58.0057 351.766L71.9474 312.014C72.342 311.093 73.1312 310.435 73.9203 310.83C74.9725 311.224 75.1041 312.014 74.7095 313.067L71.1583 323.203L114.167 322.939L80.8912 293.059Z" fill="#0E1344"/>
<path d="M197.818 178.805C214.259 194.074 214.259 215.793 201.895 229.088C189.137 242.909 168.619 249.885 148.89 231.457C130.082 213.95 134.686 192.1 147.312 178.41C159.807 165.116 181.246 163.536 197.818 178.805ZM195.188 181.701C180.457 168.011 161.122 168.143 149.943 180.121C145.076 185.386 145.865 193.548 166.383 212.634C188.085 232.773 195.188 231.852 200.054 226.587C211.234 214.608 209.918 195.259 195.188 181.701Z" fill="#0E1344"/>
<path d="M241.616 190.257C240.696 190.784 239.775 190.652 239.249 189.73C238.723 188.809 239.249 188.019 240.17 187.493L247.798 183.544L217.679 125.759L210.05 129.707C209.129 130.234 208.209 130.102 207.683 129.181C207.288 128.391 207.683 127.47 208.603 126.943L240.17 110.489C256.873 101.802 271.867 103.645 279.759 118.914C285.941 130.892 282.126 142.607 273.446 150.242C276.208 150.242 278.838 150.9 281.206 151.953L288.045 154.98C292.517 156.955 296.331 157.876 300.934 155.507C302.907 154.454 303.828 154.585 304.354 155.638C304.88 156.56 304.486 157.481 302.381 158.534C296.857 161.43 292.385 161.298 286.861 158.666L279.759 155.375C275.287 153.401 271.21 152.874 266.738 155.244C265.949 155.638 264.896 155.77 264.37 154.717C263.844 153.664 264.502 152.874 265.422 152.348C278.312 145.635 282.915 132.998 276.471 120.625C269.237 106.672 256.742 105.356 241.748 113.254L238.197 115.097L268.316 172.882L275.945 168.933C276.865 168.406 277.786 168.538 278.312 169.46C278.707 170.249 278.312 171.171 277.391 171.697L241.616 190.257Z" fill="#0E1344"/>
<path d="M322.767 148.398L331.317 147.214L322.373 82.5834L313.824 83.7681C312.771 83.8997 311.982 83.5048 311.851 82.4518C311.719 81.662 312.377 80.8722 313.429 80.7406L353.018 75.3438C372.616 72.5796 388.793 83.7681 391.818 105.487C394.844 127.206 380.902 143.396 362.751 145.897L323.162 151.294C322.11 151.426 321.321 150.899 321.189 149.978C321.057 149.056 321.715 148.53 322.767 148.398ZM388.004 106.013C385.374 86.6639 371.958 75.8703 354.071 78.2397L344.995 79.5559L353.939 144.186L363.014 142.87C379.455 140.5 390.635 125.231 388.004 106.013Z" fill="#0E1344"/>
<path d="M423.385 109.568C428.646 82.5835 450.084 75.0806 468.893 78.7662C480.862 81.1355 484.15 89.1649 484.15 89.1649L484.939 85.0844C485.07 84.0314 485.86 83.3732 486.912 83.6365C487.964 83.8997 488.49 84.6895 488.227 85.7426L484.281 106.277C484.018 107.33 483.361 107.988 482.308 107.725C481.256 107.461 480.73 106.672 480.993 105.619L482.966 95.3515C483.492 92.324 478.757 83.8997 468.893 81.9253C461.133 80.4774 454.162 85.3477 448.769 112.858C443.114 141.948 447.98 147.608 455.74 149.056C467.446 151.294 475.732 143.528 478.757 137.473C479.283 136.552 479.809 135.762 480.862 136.025C481.914 136.288 482.308 136.946 482.177 137.999C482.045 138.658 481.782 139.447 481.519 139.974C477.705 147.214 468.104 154.716 453.504 151.821C439.825 149.188 417.861 138.394 423.385 109.568Z" fill="#0E1344"/>
<path d="M567.537 119.308L558.33 192.757L563.986 195.917C564.907 196.443 565.301 197.364 564.775 198.154C564.249 198.944 563.328 199.076 562.408 198.549L527.553 178.541C526.633 178.015 526.238 177.094 526.764 176.304C527.29 175.514 528.211 175.382 529.132 175.909L537.812 180.911L539.654 169.196L516.242 155.638L506.904 163.009L514.664 167.485C515.584 168.011 515.979 168.933 515.453 169.722C514.927 170.512 514.006 170.644 513.085 170.117L496.513 160.508C495.592 159.982 495.198 159.06 495.724 158.271C496.25 157.481 497.171 157.349 498.091 157.876L503.747 161.035L562.539 116.017C563.986 114.964 565.17 115.096 566.353 115.754C567.011 116.544 567.8 117.86 567.537 119.308ZM518.741 153.795L540.18 166.168L544.389 134.446L518.741 153.795Z" fill="#0E1344"/>
<path d="M616.201 256.861C616.99 256.335 617.911 256.598 618.437 257.388L623.567 264.232L668.811 230.14L606.074 244.356C605.416 244.488 604.627 244.093 604.364 243.567C603.969 243.04 603.706 242.382 603.969 241.592L633.299 183.938L588.581 217.636L593.842 224.744C594.499 225.533 594.499 226.586 593.71 227.113C592.921 227.639 592 227.376 591.474 226.586L578.716 209.606C578.059 208.816 578.059 207.763 578.848 207.237C579.637 206.71 580.558 206.974 581.084 207.763L586.345 214.608L638.297 175.383L633.036 168.538C632.379 167.748 632.379 166.695 633.168 166.168C633.957 165.642 634.878 165.905 635.404 166.695L653.16 190.257C653.949 191.31 654.081 191.968 653.686 193.021L633.431 234.353L677.361 224.48C678.281 224.349 679.07 224.48 679.597 225.139L696.958 248.305C697.616 249.095 697.616 250.148 696.826 250.675C696.037 251.201 695.117 250.938 694.591 250.148L689.329 243.303L637.377 282.397L642.638 289.242C643.295 290.032 643.295 291.085 642.506 291.611C641.717 292.138 640.796 291.875 640.27 291.085L616.07 259.231C615.412 258.309 615.412 257.388 616.201 256.861Z" fill="#0E1344"/>
<path d="M676.704 341.104C677.888 340.841 678.545 341.631 678.809 342.552C682.491 356.505 694.723 363.481 707.876 359.927C721.291 356.373 725.895 346.37 722.344 332.943L720.108 324.651L657.238 341.499L659.474 349.924C659.737 350.977 659.343 351.766 658.422 352.03C657.501 352.293 656.712 351.635 656.449 350.713L646.059 311.883C645.795 310.83 646.19 310.04 647.111 309.776C648.031 309.513 648.821 310.171 649.084 311.093L651.32 319.385L714.189 302.537L711.953 294.244C711.69 293.191 712.085 292.401 713.005 292.138C713.926 291.875 714.715 292.533 714.978 293.454L725.5 332.68C729.315 347.028 723.527 359.664 708.928 363.613C694.197 367.562 679.992 359.138 675.652 343.342C675.389 342.421 675.52 341.499 676.704 341.104Z" fill="#0E1344"/>
<path d="M290.413 730.333V758.107L297.778 753.763C298.699 753.368 299.619 753.368 300.014 754.158C300.409 754.948 300.146 755.737 299.225 756.264L290.413 761.397V793.12H314.35V779.167C314.35 778.114 315.008 777.193 316.06 777.193C317.112 777.193 317.77 777.983 317.77 779.167V794.436C317.77 795.489 317.244 796.148 316.06 796.148H260.03C258.978 796.148 258.32 795.621 258.32 794.7C258.32 793.778 259.109 793.252 260.03 793.252H268.316V774.297L262.003 777.983C261.082 778.509 260.162 778.378 259.767 777.588C259.373 776.798 259.636 775.877 260.556 775.482L268.316 771.006V730.333H260.03C258.978 730.333 258.32 729.806 258.32 728.885C258.32 727.963 259.109 727.437 260.03 727.437H298.699C299.751 727.437 300.409 727.963 300.409 728.885C300.409 729.806 299.619 730.333 298.699 730.333H290.413Z" fill="#0E1344"/>
<path d="M391.688 761.529C391.688 783.248 376.431 797.464 358.807 797.464C340.656 797.464 322.374 787.592 322.374 761.529C322.374 736.651 340.919 725.594 358.807 725.594C376.563 725.594 391.688 739.81 391.688 761.529ZM388.005 761.529C388.005 742.18 375.116 728.49 359.464 728.49C352.625 728.49 347.232 734.413 347.232 761.529C347.232 790.093 352.493 794.568 359.464 794.568C375.247 794.568 388.005 780.879 388.005 761.529ZM366.435 702.559C367.224 701.506 368.408 701.375 369.46 702.033C370.513 702.822 370.776 703.744 369.855 704.928L359.07 719.934C358.412 720.856 357.36 720.987 356.702 720.724C355.913 720.329 355.65 719.408 356.439 718.091L366.435 702.559Z" fill="#0E1344"/>
<path d="M399.448 793.252H407.734V730.333H399.448C398.396 730.333 397.738 729.938 397.738 728.885C397.738 728.095 398.527 727.437 399.448 727.437H437.985C457.188 727.437 471.13 740.205 471.13 761.397C471.13 782.458 455.741 796.279 437.985 796.279H399.448C398.396 796.279 397.738 795.621 397.738 794.831C397.738 793.647 398.396 793.252 399.448 793.252ZM467.447 761.266C467.447 742.311 456.136 730.201 438.643 730.201H429.699V793.12H438.643C454.689 793.252 467.447 780.089 467.447 761.266Z" fill="#0E1344"/>
<path d="M536.367 730.333L501.775 793.252H533.868V779.299C533.868 778.246 534.394 777.588 535.577 777.588C536.63 777.588 537.287 778.378 537.287 779.299V794.436C537.287 795.49 536.63 796.148 535.577 796.148H479.284C478.364 796.148 477.706 795.621 477.706 794.568C477.706 794.173 477.838 793.778 478.101 793.383L512.955 730.201H485.072V744.944C485.072 745.997 484.545 746.655 483.362 746.655C482.309 746.655 481.652 745.865 481.652 744.944V729.148C481.652 728.095 482.441 727.437 483.362 727.437H535.314C536.235 727.437 536.893 727.964 536.893 729.017C536.893 729.28 536.761 729.806 536.367 730.333ZM517.558 702.559C518.348 701.506 519.531 701.375 520.584 702.033C521.636 702.822 521.899 703.744 520.978 704.928L510.193 719.934C509.535 720.856 508.483 720.987 507.825 720.724C507.036 720.329 506.773 719.408 507.562 718.091L517.558 702.559Z" fill="#0E1344"/>
</svg>
