<svg width="681" height="686" viewBox="0 0 681 686" fill="none" xmlns="http://www.w3.org/2000/svg">
<path d="M579.416 435.889V433.514C579.416 433.061 579.077 432.722 578.625 432.722H573.313C572.861 432.722 572.522 433.061 572.522 433.514V435.889C559.073 437.586 548.676 449.122 548.676 463.034V512.914H550.258V463.034C550.258 450.027 559.977 439.282 572.522 437.586V440.074C561.221 441.771 552.405 451.498 552.405 463.374V465.296V513.027H553.988V466.088H558.847V513.027H560.429V466.088H561.221C561.447 466.088 561.786 465.975 561.899 465.749C562.916 464.278 564.611 462.921 566.758 461.903V513.027H568.341V461.338C570.375 460.659 572.748 460.207 575.122 460.094V513.027H576.704V460.094C579.077 460.207 581.45 460.659 583.485 461.338V513.027H585.067V462.016C585.18 462.016 585.18 462.016 585.18 462.129C585.632 462.356 586.084 462.582 586.536 462.808L586.649 462.921C587.101 463.147 587.44 463.487 587.892 463.713C588.005 463.826 588.005 463.826 588.118 463.939C588.457 464.165 588.796 464.505 589.022 464.731C589.362 465.07 589.701 465.409 589.927 465.862C590.04 466.088 590.379 466.201 590.605 466.201H591.396V513.14H592.978V466.201H597.838V513.14H599.42V465.409V463.487C599.42 451.724 590.718 441.884 579.303 440.187V437.699C591.848 439.395 601.567 450.14 601.567 463.147V513.027H603.149V463.147C603.376 449.122 592.865 437.586 579.416 435.889ZM574.217 437.359V435.776V434.419H577.834V435.776V437.359V439.735C577.269 439.735 576.591 439.622 576.026 439.622C575.461 439.622 574.782 439.622 574.217 439.735V437.359V437.359ZM597.951 463.261V464.278H591.17C590.944 463.939 590.605 463.6 590.266 463.261C590.153 463.147 590.153 463.034 590.04 462.921C589.814 462.695 589.475 462.469 589.249 462.243C589.023 462.016 588.796 461.903 588.57 461.677C588.344 461.564 588.118 461.338 587.779 461.225C587.44 460.998 587.101 460.772 586.762 460.659C586.536 460.546 586.31 460.433 586.084 460.32C585.632 460.094 585.293 459.98 584.841 459.754H584.728C582.129 458.736 579.19 458.171 576.139 458.171C573.087 458.171 570.036 458.736 567.436 459.754C564.611 460.885 562.464 462.356 560.995 464.278H554.214V463.261C554.214 452.289 562.238 443.241 572.635 441.657C573.765 441.431 574.895 441.318 576.139 441.318C577.269 441.318 578.512 441.431 579.642 441.657C589.927 443.241 597.951 452.289 597.951 463.261Z" fill="#EF233C" stroke="#EF233C" stroke-width="1.4"/>
<path d="M485.727 435.889V433.514C485.727 433.061 485.388 432.722 484.936 432.722H479.624C479.172 432.722 478.833 433.061 478.833 433.514V435.889C465.384 437.586 454.986 449.122 454.986 463.034V512.914H456.569V463.034C456.569 450.027 466.288 439.282 478.833 437.586V440.074C467.531 441.771 458.716 451.498 458.716 463.374V465.296V513.027H460.298V466.088H465.158V513.027H466.74V466.088H467.531C467.757 466.088 468.096 465.975 468.209 465.749C469.226 464.278 470.922 462.921 473.069 461.903V513.027H474.651V461.338C476.685 460.659 479.059 460.207 481.432 460.094V513.027H483.014V460.094C485.388 460.207 487.761 460.659 489.795 461.338V513.027H491.378V462.016C491.491 462.016 491.491 462.016 491.491 462.129C491.943 462.356 492.395 462.582 492.847 462.808L492.96 462.921C493.412 463.147 493.751 463.487 494.203 463.713C494.316 463.826 494.316 463.826 494.429 463.939C494.768 464.165 495.107 464.505 495.333 464.731C495.672 465.07 496.011 465.409 496.237 465.862C496.35 466.088 496.689 466.201 496.915 466.201H497.706V513.14H499.289V466.201H504.148V513.14H505.731V465.409V463.487C505.731 451.724 497.028 441.884 485.614 440.187V437.699C498.158 439.395 507.878 450.14 507.878 463.147V513.027H509.46V463.147C509.573 449.122 499.176 437.586 485.727 435.889ZM480.415 437.359V435.776V434.419H484.031V435.776V437.359V439.735C483.466 439.735 482.788 439.622 482.223 439.622C481.658 439.622 480.98 439.622 480.415 439.735V437.359V437.359ZM504.148 463.261V464.278H497.367C497.141 463.939 496.802 463.6 496.463 463.261C496.35 463.147 496.35 463.034 496.237 462.921C496.011 462.695 495.672 462.469 495.446 462.243C495.22 462.016 494.994 461.903 494.768 461.677C494.542 461.564 494.316 461.338 493.977 461.225C493.638 460.998 493.299 460.772 492.96 460.659C492.734 460.546 492.508 460.433 492.282 460.32C491.83 460.094 491.491 459.98 491.038 459.754H490.925C488.326 458.736 485.388 458.171 482.336 458.171C479.285 458.171 476.233 458.736 473.634 459.754C470.809 460.885 468.661 462.356 467.192 464.278H460.411V463.261C460.411 452.289 468.435 443.241 478.833 441.657C479.963 441.431 481.093 441.318 482.336 441.318C483.466 441.318 484.71 441.431 485.84 441.657C496.124 443.241 504.148 452.289 504.148 463.261Z" fill="#EF233C" stroke="#EF233C" stroke-width="1.4"/>
<path d="M645.531 463.034V485.089C646.096 483.958 646.661 482.714 647.113 481.583V462.921C647.113 452.063 653.781 442.901 663.275 439.056C663.501 438.377 663.614 437.698 663.84 437.133C653.216 440.978 645.531 451.045 645.531 463.034Z" fill="#EF233C" stroke="#EF233C" stroke-width="1.4"/>
<path d="M43.3807 387.141V398.451H7.89366C8.00668 399.017 8.11969 399.582 8.23271 400.035H43.4937V500.924C44.0588 501.942 44.5108 502.96 45.0759 503.978V400.035V398.451V391.212H64.7407V398.451V400.035V512.8H66.3229V400.035H137.41V512.8H138.992V400.035V398.451V391.212H158.657V398.451V400.035V512.8H160.239V400.035H234.717V512.8H236.412V400.035H263.197V512.8H264.779V400.035H276.985V512.8H278.567V400.035V398.451V394.153C278.567 362.823 302.074 336.922 332.363 333.076V340.994C306.03 344.726 285.8 367.347 285.8 394.719V398.451V399.13V400.035V512.8H287.382V400.035H300.944V512.8H302.526V400.035V399.921H305.465C305.691 399.921 306.03 399.808 306.143 399.582C306.369 399.243 306.708 398.79 307.047 398.451C309.872 394.832 314.167 391.778 319.479 389.629V398.451V400.035V512.8H321.061V400.035V398.451V388.95C326.486 386.914 332.702 385.783 339.144 385.67V398.451V400.035V512.8H340.726V400.035V398.451V385.67C354.401 385.896 366.832 390.76 372.822 398.451C373.161 398.79 373.387 399.243 373.726 399.582C373.839 399.808 374.178 399.921 374.405 399.921H392.487V400.035V512.8H394.069V400.035V399.13V398.451V394.719C394.069 367.347 373.839 344.726 347.507 340.994V333.076C377.795 336.809 401.302 362.823 401.302 394.153V398.451V400.035V512.8H402.885V400.035H413.734V512.8H415.316V400.035H442.101V512.8H443.683V400.035H517.144V512.8H518.726V400.035V398.451V391.212H538.391V398.451V400.035V512.8H539.973V400.035H611.851V512.8H613.433V400.035V398.451V391.212H633.889V398.451V400.035V507.371C634.454 506.467 635.019 505.449 635.471 504.544V400.035H672.654C672.767 399.469 672.88 398.904 672.993 398.451H635.584V387.141H674.801C674.914 386.575 674.914 386.01 675.027 385.557H635.584V380.467C635.584 380.015 635.245 379.676 634.793 379.676H613.433C612.981 379.676 612.642 380.015 612.642 380.467V385.557H540.764V380.467C540.764 380.015 540.425 379.676 539.973 379.676H518.613C518.161 379.676 517.822 380.015 517.822 380.467V385.557H507.763C472.841 385.557 444.474 357.168 444.474 322.218C444.474 322.105 444.474 321.992 444.361 321.879V304.574V299.823V268.833C444.361 268.38 444.022 268.041 443.57 268.041H415.09H402.659C385.141 268.041 371.014 253.79 371.014 236.371V232.187H376.213H382.768C383.22 232.187 383.559 231.847 383.559 231.395C383.559 207.077 363.781 187.397 339.596 187.397C315.297 187.397 295.632 207.19 295.632 231.395C295.632 231.847 295.971 232.187 296.423 232.187H302.978H308.177V236.371C308.177 253.903 293.937 268.041 276.533 268.041H264.214H235.734H235.621C235.169 268.041 234.83 268.38 234.83 268.833V322.331C234.83 357.281 206.463 385.67 171.541 385.67H160.352V380.58C160.352 380.128 160.013 379.789 159.561 379.789H138.201C137.749 379.789 137.41 380.128 137.41 380.58V385.67H66.3229V380.58C66.3229 380.128 65.9839 379.789 65.5318 379.789H44.1718C43.7197 379.789 43.3807 380.128 43.3807 380.58V385.67H5.85938C5.97239 386.236 5.97239 386.801 6.08541 387.254H43.3807V387.141ZM614.224 387.141V385.557V381.259H633.889V385.557V387.141V389.516H614.224V387.141ZM540.764 387.141H612.642V398.451H540.764V387.141ZM519.404 387.141V385.557V381.259H539.069V385.557V387.141V389.516H519.404V387.141ZM444.361 386.688C444.474 386.575 444.474 386.462 444.474 386.349V336.696C451.029 365.537 476.91 387.254 507.763 387.254H517.822V398.564H444.361V386.688ZM415.881 269.398H442.666V298.805H415.881V269.398ZM415.881 300.502H442.666V303.669H415.881V300.502ZM415.881 305.252H442.666V398.451H415.881V305.252ZM392.939 394.719V398.338H375.309C369.093 389.629 355.418 384.087 340.387 384.087C333.38 384.087 326.486 385.331 320.383 387.706C313.828 390.308 308.629 393.927 305.465 398.451H287.834V394.832C287.834 368.365 307.386 346.423 332.815 342.803C333.38 342.69 333.945 342.69 334.397 342.577C336.318 342.351 338.352 342.238 340.387 342.238C342.421 342.238 344.455 342.351 346.377 342.577C346.942 342.69 347.507 342.69 347.959 342.803C373.387 346.31 392.939 368.252 392.939 394.719ZM334.284 340.767V332.85V331.267V327.195H346.264V331.267V332.85V340.767C344.342 340.541 342.308 340.428 340.274 340.428C338.239 340.428 336.318 340.541 334.284 340.767ZM302.187 230.264H297.215C297.667 207.303 316.427 188.641 339.596 188.641C362.651 188.641 381.525 207.19 381.977 230.264H377.004C376.552 210.018 359.938 193.618 339.596 193.618C319.253 193.731 302.639 210.018 302.187 230.264ZM303.77 230.264C304.222 210.923 320.044 195.314 339.483 195.314C358.921 195.314 374.857 210.923 375.196 230.264H358.13C358.469 228.907 358.582 227.549 358.582 226.192C358.582 215.786 350.106 207.19 339.596 207.19C329.198 207.19 320.609 215.673 320.609 226.192C320.609 227.549 320.722 228.907 321.061 230.264H303.77ZM356.887 226.192C356.887 235.806 349.089 243.497 339.596 243.497C329.989 243.497 322.304 235.693 322.304 226.192C322.304 216.578 330.102 208.887 339.596 208.887C349.089 208.887 356.887 216.691 356.887 226.192ZM309.759 236.032V231.96H321.513C323.999 239.538 331.119 245.081 339.596 245.081C347.959 245.081 355.192 239.538 357.678 231.96H369.432V236.032C369.432 250.849 379.151 263.404 392.487 267.702H286.93C300.153 263.404 309.759 250.849 309.759 236.032ZM265.005 269.398H414.299V298.805H265.005V269.398ZM265.005 300.502H414.299V303.669H265.005V300.502ZM265.005 305.252H414.299V398.451H403.45V394.153C403.45 361.918 379.151 335.225 347.959 331.493V326.403C347.959 325.951 347.62 325.611 347.168 325.611H333.493C333.041 325.611 332.702 325.951 332.702 326.403V331.493C301.509 335.225 277.211 361.918 277.211 394.153V398.451H265.005V305.252V305.252ZM236.525 269.398H263.31V298.805H236.525V269.398ZM236.525 300.502H263.31V303.669H236.525V300.502ZM236.525 305.252H263.31V398.451H236.525V305.252ZM160.352 387.141H171.428C202.281 387.141 228.162 365.538 234.717 336.583V386.236V398.338H160.352V387.141ZM138.992 387.141V385.557V381.259H158.657V385.557V387.141V389.516H138.992V387.141ZM66.3229 387.141H137.41V398.451H66.3229V387.141ZM44.9629 387.141V385.557V381.259H64.6277V385.557V387.141V389.516H44.9629V387.141Z" fill="#EF233C" stroke="#EF233C" stroke-width="1.4"/>
<path d="M649.26 463.26V465.183V476.833C649.825 475.589 650.39 474.458 650.842 473.214V465.975H653.78C654.006 465.409 654.233 464.844 654.459 464.391H650.842V463.373C650.842 455.343 655.137 448.444 661.579 444.598C661.805 443.806 662.031 443.128 662.37 442.336C654.685 446.182 649.26 454.099 649.26 463.26Z" fill="#EF233C" stroke="#EF233C" stroke-width="1.4"/>
<path d="M31.5144 463.26C31.5144 454.099 26.2027 446.182 18.5176 442.336C18.7436 443.128 19.0827 443.806 19.3087 444.598C25.6376 448.444 29.9322 455.343 29.9322 463.26V464.278H26.4287C26.6547 464.844 26.8808 465.409 27.1068 465.862H29.9322V472.874C30.4973 474.118 31.0624 475.363 31.5144 476.607V465.07V463.26Z" fill="#EF233C" stroke="#EF233C" stroke-width="1.4"/>
<path d="M17.0488 437.246C17.2749 437.925 17.3879 438.603 17.6139 439.169C26.9942 443.014 33.6622 452.176 33.6622 462.921V481.357C34.2273 482.488 34.6793 483.732 35.2444 484.863V462.921C35.2444 451.158 27.6723 440.979 17.0488 437.246Z" fill="#EF233C" stroke="#EF233C" stroke-width="1.4"/>
<path d="M201.943 435.889V433.514C201.943 433.061 201.604 432.722 201.152 432.722H195.841C195.389 432.722 195.049 433.061 195.049 433.514V435.889C181.601 437.586 171.203 449.122 171.203 463.034V512.914H172.785V463.034C172.785 450.027 182.505 439.282 195.049 437.586V440.074C183.748 441.771 174.933 451.498 174.933 463.374V465.296V513.027H176.515V466.088H181.375V513.027H182.957V466.088H183.748C183.974 466.088 184.313 465.975 184.426 465.749C185.443 464.278 187.138 462.921 189.286 461.903V513.027H190.868V461.338C192.902 460.659 195.276 460.207 197.649 460.094V513.027H199.231V460.094C201.604 460.207 203.978 460.659 206.012 461.338V513.027H207.594V462.016C207.707 462.016 207.707 462.016 207.707 462.129C208.159 462.356 208.611 462.582 209.063 462.808L209.176 462.921C209.629 463.147 209.968 463.487 210.42 463.713C210.533 463.826 210.533 463.826 210.646 463.939C210.985 464.165 211.324 464.505 211.55 464.731C211.889 465.07 212.228 465.409 212.454 465.862C212.567 466.088 212.906 466.201 213.132 466.201H213.923V513.14H215.505V466.201H220.365V513.14H221.947V465.409V463.487C221.947 451.724 213.245 441.884 201.83 440.187V437.699C214.375 439.395 224.095 450.14 224.095 463.147V513.027H225.677V463.147C225.903 449.122 215.392 437.586 201.943 435.889ZM196.745 437.359V435.776V434.419H200.361V435.776V437.359V439.735C199.796 439.735 199.118 439.622 198.553 439.622C197.988 439.622 197.31 439.622 196.745 439.735V437.359ZM220.478 463.261V464.278H213.697C213.471 463.939 213.132 463.6 212.793 463.261C212.68 463.147 212.68 463.034 212.567 462.921C212.341 462.695 212.002 462.469 211.776 462.243C211.55 462.016 211.324 461.903 211.098 461.677C210.872 461.564 210.646 461.338 210.307 461.225C209.968 460.998 209.629 460.772 209.289 460.659C209.063 460.546 208.837 460.433 208.611 460.32C208.159 460.094 207.82 459.98 207.368 459.754H207.255C204.656 458.736 201.717 458.171 198.666 458.171C195.615 458.171 192.563 458.736 189.964 459.754C187.138 460.885 184.991 462.356 183.522 464.278H176.741V463.261C176.741 452.289 184.765 443.241 195.163 441.657C196.293 441.431 197.423 441.318 198.666 441.318C199.796 441.318 201.039 441.431 202.169 441.657C212.454 443.241 220.478 452.289 220.478 463.261Z" fill="#EF233C" stroke="#EF233C" stroke-width="1.4"/>
<path d="M105.201 435.889V433.514C105.201 433.061 104.862 432.722 104.41 432.722H99.0984C98.6464 432.722 98.3073 433.061 98.3073 433.514V435.889C84.8584 437.586 74.4609 449.122 74.4609 463.034V512.914H76.0432V463.034C76.0432 450.027 85.7625 439.282 98.3073 437.586V440.074C87.0057 441.771 78.1905 451.498 78.1905 463.374V465.296V513.027H79.7727V466.088H84.6324V513.027H86.2146V466.088H87.0057C87.2317 466.088 87.5708 465.975 87.6838 465.749C88.701 464.278 90.3962 462.921 92.5435 461.903V513.027H94.1257V461.338C96.16 460.659 98.5333 460.207 100.907 460.094V513.027H102.489V460.094C104.862 460.207 107.236 460.659 109.27 461.338V513.027H110.852V462.016C110.965 462.016 110.965 462.016 110.965 462.129C111.417 462.356 111.869 462.582 112.321 462.808C112.321 462.808 112.434 462.808 112.434 462.921C112.886 463.147 113.225 463.487 113.677 463.713C113.791 463.826 113.791 463.826 113.904 463.939C114.243 464.165 114.582 464.505 114.808 464.731C115.147 465.07 115.486 465.409 115.712 465.862C115.825 466.088 116.164 466.201 116.39 466.201H117.181V513.14H118.763V466.201H123.623V513.14H125.205V465.409V463.487C125.205 451.724 116.503 441.884 105.088 440.187V437.699C117.633 439.395 127.352 450.14 127.352 463.147V513.027H128.935V463.147C129.048 449.122 118.537 437.586 105.201 435.889ZM99.8895 437.359V435.776V434.419H103.506V435.776V437.359V439.735C102.941 439.735 102.263 439.622 101.698 439.622C101.133 439.622 100.455 439.622 99.8895 439.735V437.359V437.359ZM123.623 463.261V464.278H116.842C116.616 463.939 116.277 463.6 115.938 463.261C115.825 463.147 115.825 463.034 115.712 462.921C115.486 462.695 115.147 462.469 114.921 462.243C114.695 462.016 114.469 461.903 114.243 461.677C114.017 461.564 113.791 461.338 113.451 461.225C113.112 460.998 112.773 460.772 112.434 460.659C112.208 460.546 111.982 460.433 111.756 460.32C111.304 460.094 110.965 459.98 110.513 459.754H110.4C107.801 458.736 104.862 458.171 101.811 458.171C98.7594 458.171 95.7079 458.736 93.1086 459.754C90.2832 460.885 88.1359 462.356 86.6667 464.278H79.8857V463.261C79.8857 452.289 87.9098 443.241 98.3073 441.657C99.4375 441.431 100.568 441.318 101.811 441.318C103.054 441.318 104.184 441.431 105.314 441.657C115.599 443.241 123.623 452.289 123.623 463.261Z" fill="#EF233C" stroke="#EF233C" stroke-width="1.4"/>
<path d="M339.596 223.478C340.048 223.478 340.387 223.138 340.387 222.686V212.054C340.387 211.602 340.048 211.262 339.596 211.262C339.144 211.262 338.805 211.602 338.805 212.054V222.686C338.805 223.025 339.144 223.478 339.596 223.478Z" fill="#EF233C" stroke="#EF233C" stroke-width="1.4"/>
<path d="M349.993 225.061H342.873C342.421 225.061 342.082 225.4 342.082 225.853C342.082 226.305 342.421 226.645 342.873 226.645H349.993C350.445 226.645 350.784 226.305 350.784 225.853C350.784 225.4 350.445 225.061 349.993 225.061Z" fill="#EF233C" stroke="#EF233C" stroke-width="1.4"/>
<path d="M339.596 225.061C339.144 225.061 338.805 225.4 338.805 225.853C338.805 226.305 339.144 226.645 339.596 226.645C340.048 226.645 340.387 226.305 340.387 225.853C340.387 225.4 340.048 225.061 339.596 225.061Z" fill="#EF233C" stroke="#EF233C" stroke-width="1.4"/>
<path d="M609.025 548.429H603.939H77.0584H71.9727L75.1371 552.387C83.5003 562.793 92.4285 572.633 101.696 581.795H104.521C94.5759 572.181 85.1955 561.888 76.6063 551.143L75.9282 550.352H604.843L604.165 551.143C595.463 561.888 586.082 572.181 576.25 581.795H579.075C588.456 572.52 597.271 562.793 605.634 552.387L609.025 548.429Z" fill="#EF233C" stroke="#EF233C" stroke-width="1.4"/>
<path d="M340.387 2.92279C526.863 2.92279 677.966 154.144 677.966 340.655C677.966 403.541 660.787 462.356 630.838 512.801H50.0489C20.2127 462.469 2.92127 403.541 2.92127 340.655C2.92127 154.144 154.024 2.92279 340.387 2.92279ZM340.387 1C153.233 1 1 153.353 1 340.655C1 401.618 17.3873 461.451 48.4667 513.818L49.0318 514.723H50.162H630.838H631.968L632.533 513.818C663.5 461.564 680 401.618 680 340.655C679.887 153.353 527.541 1 340.387 1Z" fill="#EF233C" stroke="#EF233C" stroke-width="1.4"/>
<path d="M329.199 283.651C329.651 282.972 329.877 282.181 329.877 281.502C329.877 280.71 329.538 280.371 328.747 280.371C327.278 280.371 326.148 281.389 326.148 282.633C326.148 282.746 326.035 282.972 325.922 282.972C325.696 282.972 325.696 282.859 325.696 282.633C325.696 281.049 327.165 279.918 328.973 279.918C331.007 279.918 332.59 281.049 332.59 282.859C332.59 283.877 332.251 284.669 331.686 285.574L328.747 290.324H332.703C332.816 290.324 332.929 290.324 332.929 290.55C332.929 290.663 332.816 290.777 332.703 290.777H325.244C325.131 290.777 325.018 290.663 325.018 290.55C325.018 290.437 325.018 290.437 325.131 290.211L329.199 283.651Z" fill="#EF233C"/>
<path d="M342.537 285.46C342.537 288.74 340.728 291.002 338.694 291.002C336.434 291.002 334.061 289.079 334.061 285.46C334.061 281.84 336.434 279.917 338.694 279.917C340.728 280.031 342.537 282.18 342.537 285.46ZM341.972 285.46C341.972 282.519 340.502 280.37 338.807 280.37C338.129 280.37 337.451 281.162 337.451 285.46C337.451 289.758 338.129 290.549 338.807 290.549C340.502 290.549 341.972 288.513 341.972 285.46Z" fill="#EF233C"/>
<path d="M347.961 280.144C348.074 280.031 348.3 279.917 348.526 279.917C348.752 279.917 348.865 280.031 348.865 280.257V290.323H350.334C350.447 290.323 350.56 290.436 350.56 290.549C350.56 290.662 350.447 290.776 350.334 290.776H344.118C344.005 290.776 343.892 290.662 343.892 290.549C343.892 290.436 344.005 290.323 344.118 290.323H345.588V282.18C345.022 282.519 344.457 282.745 344.118 282.971C344.005 282.971 343.892 282.971 343.779 282.971C343.666 282.858 343.779 282.745 343.892 282.632C345.022 282.066 346.831 281.049 347.961 280.144Z" fill="#EF233C"/>
<path d="M356.55 286.478C356.098 287.043 355.307 287.496 354.403 287.496C352.821 287.496 351.352 286.252 351.352 284.216C351.352 281.727 353.273 280.031 355.759 280.031C358.019 280.031 360.054 281.501 360.054 284.668C360.054 288.74 356.437 291.002 353.16 291.002C353.047 291.002 352.934 291.002 352.934 290.776C352.934 290.663 353.047 290.55 353.16 290.55C355.307 290.436 356.324 289.192 356.55 286.478ZM356.663 283.763C356.663 281.162 356.324 280.37 355.307 280.37C353.499 280.37 351.917 281.954 351.917 284.216C351.917 286.025 353.047 287.043 354.403 287.043C356.324 287.043 356.663 285.573 356.663 283.763Z" fill="#EF233C"/>
<path d="M340.389 575.574C393.131 575.574 435.888 532.785 435.888 480.001C435.888 427.217 393.131 384.427 340.389 384.427C287.647 384.427 244.891 427.217 244.891 480.001C244.891 532.785 287.647 575.574 340.389 575.574Z" fill="white"/>
<path d="M257.436 480.001C257.436 512.914 276.535 541.304 304.224 554.763L264.669 446.182C260.035 456.588 257.436 468.011 257.436 480.001Z" fill="#0E1344"/>
<path d="M396.444 475.816C396.444 465.523 392.715 458.398 389.55 452.969C385.369 446.182 381.413 440.301 381.413 433.515C381.413 425.937 387.177 418.811 395.314 418.811C395.653 418.811 395.992 418.811 396.444 418.924C381.639 405.351 361.974 397.095 340.388 397.095C311.456 397.095 285.914 412.025 271.109 434.532C273.031 434.646 274.839 434.646 276.421 434.646C285.123 434.646 298.572 433.628 298.572 433.628C303.093 433.401 303.545 439.962 299.137 440.414C299.137 440.414 294.617 440.98 289.644 441.206L319.819 531.124L338.015 476.608L325.131 441.206C320.61 440.98 316.429 440.414 316.429 440.414C311.908 440.188 312.473 433.288 316.994 433.628C316.994 433.628 330.669 434.646 338.806 434.646C347.508 434.646 360.957 433.628 360.957 433.628C365.478 433.401 365.93 439.962 361.522 440.414C361.522 440.414 357.002 440.98 352.029 441.206L381.865 530.333L390.115 502.622C393.732 491.198 396.444 482.941 396.444 475.816Z" fill="#0E1344"/>
<path d="M341.858 487.352L316.994 559.739C324.453 561.888 332.251 563.132 340.388 563.132C349.995 563.132 359.262 561.436 367.964 558.382C367.738 558.043 367.512 557.703 367.399 557.251L341.858 487.352Z" fill="#0E1344"/>
<path d="M413.284 440.188C413.623 442.789 413.849 445.617 413.849 448.67C413.849 457.04 412.267 466.541 407.52 478.417L382.092 551.822C406.729 537.458 423.343 510.652 423.343 480.001C423.456 465.636 419.726 452.064 413.284 440.188Z" fill="#0E1344"/>
<path d="M340.388 383.295C287.045 383.295 243.646 426.728 243.646 480.113C243.646 533.499 287.045 576.931 340.388 576.931C393.732 576.931 437.13 533.499 437.13 480.113C437.13 426.615 393.732 383.295 340.388 383.295ZM340.388 572.407C289.531 572.407 248.054 531.011 248.054 480C248.054 429.103 289.418 387.593 340.388 387.593C391.245 387.593 432.722 428.99 432.722 480C432.722 531.011 391.358 572.407 340.388 572.407Z" fill="#0E1344"/>
<path d="M69.8271 251.754C68.81 250.849 68.4709 249.605 68.81 248.361C69.149 247.117 69.7141 246.664 71.4093 246.438L111.304 243.045L81.4678 220.424L78.9814 227.663C78.6424 228.454 78.0773 229.02 77.2862 228.681C76.4951 228.454 76.269 227.663 76.6081 226.758L82.2589 210.584C82.5979 209.792 83.276 209.226 83.9541 209.566C84.7452 209.905 84.9713 210.584 84.6322 211.489L82.5979 217.37L130.743 254.016C131.873 254.808 132.325 256.165 131.986 257.183C131.647 258.314 130.517 258.993 128.935 259.106L87.6837 263.404L117.859 290.888C118.989 292.019 119.328 293.264 118.989 294.281C118.65 295.299 117.633 295.978 116.051 295.978L54.57 297.222L52.5357 303.104C52.1966 304.009 51.6315 304.461 50.8404 304.122C50.0493 303.895 49.8233 303.104 50.1623 302.199L62.142 268.041C62.4811 267.249 63.1592 266.684 63.8373 267.023C64.7414 267.362 64.8544 268.041 64.5154 268.946L61.4639 277.655L98.4202 277.429L69.8271 251.754Z" fill="white"/>
<path d="M170.298 153.579C184.425 166.699 184.425 185.361 173.802 196.785C162.839 208.661 145.209 214.655 128.256 198.821C112.095 183.778 116.05 165.002 126.9 153.239C137.637 141.816 156.058 140.459 170.298 153.579ZM168.038 156.067C155.38 144.304 138.767 144.417 129.16 154.71C124.979 159.234 125.657 166.246 143.287 182.647C161.935 199.952 168.038 199.16 172.219 194.636C181.826 184.343 180.696 167.717 168.038 156.067Z" fill="white"/>
<path d="M207.934 163.419C207.142 163.872 206.351 163.759 205.899 162.967C205.447 162.175 205.899 161.496 206.69 161.044L213.245 157.651L187.365 107.998L180.81 111.391C180.019 111.843 179.228 111.73 178.775 110.938C178.436 110.26 178.775 109.468 179.567 109.016L206.69 94.8776C221.043 87.4126 233.927 88.9961 240.708 102.116C246.02 112.409 242.742 122.475 235.283 129.035C237.657 129.035 239.917 129.601 241.951 130.506L247.828 133.107C251.671 134.804 254.948 135.595 258.904 133.559C260.599 132.655 261.39 132.768 261.842 133.673C262.294 134.464 261.955 135.256 260.147 136.161C255.4 138.649 251.558 138.536 246.811 136.274L240.708 133.446C236.866 131.75 233.362 131.297 229.52 133.333C228.841 133.673 227.937 133.786 227.485 132.881C227.033 131.976 227.598 131.297 228.389 130.845C239.465 125.077 243.421 114.219 237.883 103.587C231.667 91.5975 220.93 90.4665 208.047 97.2528L204.995 98.8362L230.876 148.489L237.431 145.096C238.222 144.644 239.013 144.757 239.465 145.549C239.804 146.227 239.465 147.019 238.674 147.471L207.934 163.419Z" fill="white"/>
<path d="M277.662 127.451L285.008 126.433L277.323 70.8989L269.977 71.9168C269.073 72.0299 268.395 71.6906 268.282 70.7858C268.169 70.1071 268.734 69.4285 269.638 69.3154L303.656 64.6781C320.495 62.3029 334.396 71.9168 336.996 90.5792C339.595 109.241 327.615 123.153 312.019 125.302L278.001 129.94C277.097 130.053 276.419 129.6 276.306 128.809C276.193 128.017 276.758 127.565 277.662 127.451ZM333.718 91.0316C331.458 74.4051 319.93 65.1305 304.56 67.1664L296.762 68.2975L304.447 123.832L312.245 122.701C326.372 120.665 335.979 107.545 333.718 91.0316Z" fill="white"/>
<path d="M364.121 94.086C368.642 70.8994 387.063 64.4525 403.225 67.6194C413.509 69.6553 416.335 76.5547 416.335 76.5547L417.013 73.0484C417.126 72.1436 417.804 71.5781 418.708 71.8043C419.612 72.0305 420.064 72.7091 419.838 73.614L416.448 91.2584C416.222 92.1632 415.657 92.7287 414.752 92.5025C413.848 92.2763 413.396 91.5977 413.622 90.6928L415.318 81.8706C415.77 79.2692 411.701 72.0305 403.225 70.3339C396.557 69.0898 390.567 73.2747 385.933 96.9136C381.074 121.91 385.255 126.773 391.923 128.018C401.982 129.94 409.102 123.267 411.701 118.064C412.153 117.273 412.605 116.594 413.509 116.82C414.413 117.046 414.752 117.612 414.639 118.517C414.526 119.082 414.3 119.761 414.074 120.213C410.797 126.434 402.547 132.881 390.002 130.393C378.248 128.131 359.375 118.856 364.121 94.086Z" fill="white"/>
<path d="M487.987 102.455L480.076 165.567L484.936 168.282C485.727 168.734 486.066 169.526 485.614 170.205C485.162 170.883 484.371 170.997 483.58 170.544L453.63 153.352C452.839 152.9 452.5 152.108 452.952 151.429C453.404 150.751 454.196 150.638 454.987 151.09L462.446 155.388L464.028 145.322L443.911 133.672L435.887 140.006L442.555 143.851C443.346 144.304 443.685 145.095 443.233 145.774C442.781 146.453 441.99 146.566 441.199 146.113L426.959 137.857C426.168 137.404 425.829 136.613 426.281 135.934C426.733 135.255 427.524 135.142 428.315 135.595L433.175 138.309L483.693 99.6272C484.936 98.7224 485.953 98.8355 486.97 99.401C487.535 100.08 488.213 101.211 487.987 102.455ZM446.058 132.088L464.48 142.72L468.097 115.462L446.058 132.088Z" fill="white"/>
<path d="M529.804 220.65C530.482 220.198 531.273 220.424 531.725 221.103L536.133 226.984L575.01 197.69L521.102 209.905C520.537 210.018 519.858 209.679 519.632 209.227C519.293 208.774 519.067 208.209 519.293 207.53L544.496 157.99L506.07 186.945L510.591 193.052C511.156 193.731 511.156 194.636 510.478 195.088C509.8 195.541 509.009 195.315 508.557 194.636L497.594 180.045C497.029 179.367 497.029 178.462 497.707 178.01C498.385 177.557 499.176 177.783 499.629 178.462L504.149 184.343L548.791 150.638L544.27 144.757C543.705 144.078 543.705 143.173 544.383 142.721C545.061 142.268 545.852 142.495 546.304 143.173L561.561 163.419C562.239 164.324 562.352 164.889 562.013 165.794L544.609 201.309L582.356 192.826C583.147 192.713 583.825 192.826 584.277 193.392L599.196 213.298C599.761 213.977 599.761 214.882 599.083 215.334C598.405 215.787 597.613 215.56 597.161 214.882L592.641 209L547.999 242.593L552.52 248.474C553.085 249.153 553.085 250.057 552.407 250.51C551.729 250.962 550.938 250.736 550.486 250.057L529.691 222.686C529.126 221.894 529.126 221.103 529.804 220.65Z" fill="white"/>
<path d="M581.79 293.037C582.807 292.811 583.372 293.49 583.598 294.282C586.763 306.271 597.273 312.265 608.575 309.212C620.103 306.158 624.058 297.562 621.007 286.025L619.086 278.899L565.064 293.377L566.985 300.616C567.211 301.52 566.872 302.199 566.081 302.425C565.29 302.651 564.612 302.086 564.386 301.294L555.457 267.928C555.231 267.023 555.57 266.345 556.362 266.118C557.153 265.892 557.831 266.458 558.057 267.25L559.978 274.375L614 259.898L612.079 252.772C611.853 251.867 612.192 251.189 612.983 250.962C613.774 250.736 614.452 251.302 614.678 252.093L623.719 285.799C626.997 298.127 622.024 308.985 609.479 312.378C596.821 315.772 584.616 308.533 580.886 294.96C580.66 294.169 580.773 293.377 581.79 293.037Z" fill="white"/>
<path d="M249.861 627.489V651.354L256.19 647.622C256.981 647.282 257.772 647.282 258.111 647.961C258.45 648.639 258.224 649.318 257.433 649.77L249.861 654.182V681.44H270.43V669.451C270.43 668.546 270.995 667.754 271.899 667.754C272.803 667.754 273.368 668.433 273.368 669.451V682.571C273.368 683.476 272.916 684.041 271.899 684.041H223.754C222.85 684.041 222.285 683.589 222.285 682.797C222.285 682.005 222.963 681.553 223.754 681.553H230.874V665.266L225.45 668.433C224.658 668.885 223.867 668.772 223.528 668.094C223.189 667.415 223.415 666.623 224.206 666.284L230.874 662.438V627.489H223.754C222.85 627.489 222.285 627.036 222.285 626.245C222.285 625.453 222.963 625 223.754 625H256.981C257.885 625 258.45 625.453 258.45 626.245C258.45 627.036 257.772 627.489 256.981 627.489H249.861Z" fill="white"/>
<path d="M336.884 654.295C336.884 672.957 323.774 685.173 308.63 685.173C293.033 685.173 277.324 676.69 277.324 654.295C277.324 632.918 293.26 623.417 308.63 623.417C323.887 623.417 336.884 635.632 336.884 654.295ZM333.719 654.295C333.719 637.668 322.644 625.905 309.195 625.905C303.318 625.905 298.684 630.995 298.684 654.295C298.684 678.839 303.205 682.684 309.195 682.684C322.757 682.684 333.719 670.921 333.719 654.295ZM315.185 603.624C315.863 602.719 316.88 602.606 317.784 603.171C318.688 603.85 318.914 604.642 318.123 605.66L308.856 618.554C308.291 619.345 307.387 619.458 306.821 619.232C306.143 618.893 305.917 618.101 306.595 616.97L315.185 603.624Z" fill="white"/>
<path d="M343.551 681.553H350.671V627.489H343.551C342.647 627.489 342.082 627.149 342.082 626.245C342.082 625.566 342.76 625 343.551 625H376.665C393.165 625 405.145 635.972 405.145 654.182C405.145 672.278 391.922 684.154 376.665 684.154H343.551C342.647 684.154 342.082 683.589 342.082 682.91C342.082 681.892 342.647 681.553 343.551 681.553ZM401.981 654.069C401.981 637.781 392.261 627.376 377.23 627.376H369.545V681.44H377.23C391.018 681.553 401.981 670.243 401.981 654.069Z" fill="white"/>
<path d="M461.2 627.489L431.477 681.553H459.053V669.564C459.053 668.659 459.505 668.094 460.522 668.094C461.426 668.094 461.991 668.772 461.991 669.564V682.571C461.991 683.476 461.426 684.042 460.522 684.042H412.151C411.36 684.042 410.795 683.589 410.795 682.684C410.795 682.345 410.908 682.006 411.134 681.666L441.083 627.376H417.124V640.044C417.124 640.948 416.672 641.514 415.655 641.514C414.75 641.514 414.185 640.835 414.185 640.044V626.471C414.185 625.566 414.863 625.001 415.655 625.001H460.296C461.087 625.001 461.652 625.453 461.652 626.358C461.652 626.584 461.539 627.037 461.2 627.489ZM445.039 603.624C445.717 602.719 446.734 602.606 447.638 603.171C448.542 603.85 448.768 604.642 447.977 605.66L438.71 618.554C438.145 619.345 437.241 619.458 436.676 619.232C435.998 618.893 435.771 618.101 436.45 616.97L445.039 603.624Z" fill="white"/>
</svg>
